<svg width="800" height="800" viewBox="0 0 800 800" fill="none" xmlns="http://www.w3.org/2000/svg">
<path d="M700 33.3333H100C91.1595 33.3333 82.681 36.8452 76.4298 43.0964C70.1786 49.3477 66.6667 57.8261 66.6667 66.6667V733.333C66.6667 742.174 70.1786 750.652 76.4298 756.904C82.681 763.155 91.1595 766.667 100 766.667H566.667C571.049 766.649 575.385 765.777 579.433 764.1C583.485 762.425 587.166 759.967 590.267 756.867L723.6 623.533C729.476 617.055 732.917 608.736 733.333 600V66.6667C733.333 57.8261 729.821 49.3477 723.57 43.0964C717.319 36.8452 708.841 33.3333 700 33.3333ZM533.333 600V700H133.333V100H666.667V566.667H566.667C557.826 566.667 549.348 570.179 543.096 576.43C536.845 582.681 533.333 591.159 533.333 600ZM566.667 333.333C566.667 342.174 563.155 350.652 556.904 356.904C550.652 363.155 542.174 366.667 533.333 366.667H266.667C257.826 366.667 249.348 363.155 243.096 356.904C236.845 350.652 233.333 342.174 233.333 333.333C233.333 324.493 236.845 316.014 243.096 309.763C249.348 303.512 257.826 300 266.667 300H533.333C542.174 300 550.652 303.512 556.904 309.763C563.155 316.014 566.667 324.493 566.667 333.333ZM433.333 466.667C433.333 475.507 429.821 483.986 423.57 490.237C417.319 496.488 408.841 500 400 500H266.667C257.826 500 249.348 496.488 243.096 490.237C236.845 483.986 233.333 475.507 233.333 466.667C233.333 457.826 236.845 449.348 243.096 443.096C249.348 436.845 257.826 433.333 266.667 433.333H400C408.841 433.333 417.319 436.845 423.57 443.096C429.821 449.348 433.333 457.826 433.333 466.667Z" fill="white"/>
</svg>
